<svg width="40" height="40" viewBox="0 0 40 40" fill="none" xmlns="http://www.w3.org/2000/svg">
<rect width="40" height="40" rx="20" fill="white" fill-opacity="0.1"/>
<path d="M11.5 27.5C10.95 27.5 10.4792 27.3042 10.0875 26.9125C9.69583 26.5208 9.5 26.05 9.5 25.5V13.5C9.5 12.95 9.69583 12.4792 10.0875 12.0875C10.4792 11.6958 10.95 11.5 11.5 11.5L13.5 15.5H16.5L14.5 11.5H16.5L18.5 15.5H21.5L19.5 11.5H21.5L23.5 15.5H26.5L24.5 11.5H27.5C28.05 11.5 28.5208 11.6958 28.9125 12.0875C29.3042 12.4792 29.5 12.95 29.5 13.5V17.5H11.5V25.5H19.5V27.5H11.5ZM21.5 28.5V25.425L27.025 19.925C27.175 19.775 27.3417 19.6667 27.525 19.6C27.7083 19.5333 27.8917 19.5 28.075 19.5C28.275 19.5 28.4667 19.5375 28.65 19.6125C28.8333 19.6875 29 19.8 29.15 19.95L30.075 20.875C30.2083 21.025 30.3125 21.1917 30.3875 21.375C30.4625 21.5583 30.5 21.7417 30.5 21.925C30.5 22.1083 30.4667 22.2958 30.4 22.4875C30.3333 22.6792 30.225 22.85 30.075 23L24.575 28.5H21.5ZM23 27H23.95L26.975 23.95L26.525 23.475L26.05 23.025L23 26.05V27ZM26.525 23.475L26.05 23.025L26.975 23.95L26.525 23.475Z" fill="#E53946"/>
</svg>
