<svg width="40" height="40" viewBox="0 0 40 40" fill="none" xmlns="http://www.w3.org/2000/svg">
<rect width="40" height="40" rx="20" fill="white" fill-opacity="0.1"/>
<path d="M20 29C19.2727 28.4154 18.4848 27.9615 17.6364 27.6385C16.7879 27.3154 15.9091 27.1538 15 27.1538C14.3636 27.1538 13.7386 27.2385 13.125 27.4077C12.5114 27.5769 11.9242 27.8154 11.3636 28.1231C11.0455 28.2923 10.7386 28.2846 10.4432 28.1C10.1477 27.9154 10 27.6462 10 27.2923V16.1692C10 16 10.0417 15.8385 10.125 15.6846C10.2083 15.5308 10.3333 15.4154 10.5 15.3385C11.197 14.9692 11.9242 14.6923 12.6818 14.5077C13.4394 14.3231 14.2121 14.2308 15 14.2308C15.8788 14.2308 16.7386 14.3462 17.5795 14.5769C18.4205 14.8077 19.2273 15.1538 20 15.6154V26.7846C20.7727 26.2923 21.5833 25.9231 22.4318 25.6769C23.2803 25.4308 24.1364 25.3077 25 25.3077C25.5455 25.3077 26.0795 25.3538 26.6023 25.4462C27.125 25.5385 27.6515 25.6769 28.1818 25.8615V14.7846C28.4091 14.8615 28.6326 14.9423 28.8523 15.0269C29.072 15.1115 29.2879 15.2154 29.5 15.3385C29.6667 15.4154 29.7917 15.5308 29.875 15.6846C29.9583 15.8385 30 16 30 16.1692V27.2923C30 27.6462 29.8523 27.9154 29.5568 28.1C29.2614 28.2846 28.9545 28.2923 28.6364 28.1231C28.0758 27.8154 27.4886 27.5769 26.875 27.4077C26.2614 27.2385 25.6364 27.1538 25 27.1538C24.0909 27.1538 23.2121 27.3154 22.3636 27.6385C21.5152 27.9615 20.7273 28.4154 20 29ZM21.8182 24.3846V15.6154L26.3636 11V20.2308L21.8182 24.3846ZM18.1818 25.8846V16.7462C17.6818 16.5308 17.1629 16.3654 16.625 16.25C16.0871 16.1346 15.5455 16.0769 15 16.0769C14.4394 16.0769 13.8939 16.1308 13.3636 16.2385C12.8333 16.3462 12.3182 16.5077 11.8182 16.7231V25.8846C12.3485 25.6846 12.875 25.5385 13.3977 25.4462C13.9205 25.3538 14.4545 25.3077 15 25.3077C15.5455 25.3077 16.0795 25.3538 16.6023 25.4462C17.125 25.5385 17.6515 25.6846 18.1818 25.8846Z" fill="#E53946"/>
</svg>
