<svg width="40" height="40" viewBox="0 0 40 40" fill="none" xmlns="http://www.w3.org/2000/svg">
<rect width="40" height="40" rx="20" fill="white" fill-opacity="0.1"/>
<path d="M12 29.5C11.45 29.5 10.9792 29.3042 10.5875 28.9125C10.1958 28.5208 10 28.05 10 27.5V16.5C10 15.95 10.1958 15.4792 10.5875 15.0875C10.9792 14.6958 11.45 14.5 12 14.5H16V12.5C16 11.95 16.1958 11.4792 16.5875 11.0875C16.9792 10.6958 17.45 10.5 18 10.5H22C22.55 10.5 23.0208 10.6958 23.4125 11.0875C23.8042 11.4792 24 11.95 24 12.5V14.5H28C28.55 14.5 29.0208 14.6958 29.4125 15.0875C29.8042 15.4792 30 15.95 30 16.5V27.5C30 28.05 29.8042 28.5208 29.4125 28.9125C29.0208 29.3042 28.55 29.5 28 29.5H12ZM18 14.5H22V12.5H18V14.5ZM28 23.5H23V25.5H17V23.5H12V27.5H28V23.5ZM19 23.5H21V21.5H19V23.5ZM12 21.5H17V19.5H23V21.5H28V16.5H12V21.5Z" fill="#E53946"/>
</svg>
