<svg width="42" height="42" viewBox="0 0 42 42" fill="none" xmlns="http://www.w3.org/2000/svg">
<rect width="42" height="42" rx="21" fill="#111827"/>
<path d="M20.4137 20.2101C20.4137 21.1204 20.3417 21.933 20.1977 22.6479C20.0588 23.3629 19.8325 23.9698 19.5188 24.4687C19.2102 24.9675 18.8038 25.3481 18.2998 25.6104C17.7958 25.8728 17.1837 26.0039 16.4637 26.0039C15.5585 26.0039 14.8153 25.775 14.2341 25.3173C13.6529 24.8544 13.2234 24.1909 12.9457 23.3269C12.668 22.4576 12.5291 21.4187 12.5291 20.2101C12.5291 18.9911 12.6551 17.9496 12.9071 17.0855C13.1643 16.2163 13.5809 15.5503 14.1569 15.0874C14.733 14.6245 15.5019 14.3931 16.4637 14.3931C17.3637 14.3931 18.1044 14.6245 18.6855 15.0874C19.2719 15.5451 19.7065 16.2086 19.9894 17.0778C20.2722 17.9419 20.4137 18.986 20.4137 20.2101ZM14.8976 20.2101C14.8976 21.069 14.9438 21.7865 15.0364 22.3625C15.1341 22.9334 15.2962 23.3629 15.5225 23.6509C15.7488 23.9389 16.0625 24.0829 16.4637 24.0829C16.8597 24.0829 17.1709 23.9415 17.3972 23.6586C17.6286 23.3706 17.7932 22.9411 17.8909 22.3702C17.9886 21.7942 18.0375 21.0741 18.0375 20.2101C18.0375 19.3511 17.9886 18.6337 17.8909 18.0576C17.7932 17.4816 17.6286 17.0495 17.3972 16.7615C17.1709 16.4684 16.8597 16.3218 16.4637 16.3218C16.0625 16.3218 15.7488 16.4684 15.5225 16.7615C15.2962 17.0495 15.1341 17.4816 15.0364 18.0576C14.9438 18.6337 14.8976 19.3511 14.8976 20.2101ZM29.5172 25.8496H21.6326V24.1909L24.464 21.3287C25.0349 20.7424 25.4926 20.2538 25.8372 19.8629C26.1869 19.4669 26.439 19.1068 26.5933 18.7828C26.7527 18.4588 26.8324 18.1116 26.8324 17.7413C26.8324 17.2938 26.7064 16.9595 26.4544 16.7384C26.2075 16.5121 25.8758 16.3989 25.4592 16.3989C25.022 16.3989 24.5977 16.4992 24.1862 16.6998C23.7748 16.9004 23.3453 17.1858 22.8979 17.5562L21.6018 16.0209C21.9258 15.7432 22.2678 15.4809 22.6278 15.234C22.993 14.9871 23.4147 14.7891 23.8931 14.6399C24.3765 14.4856 24.9551 14.4085 25.6289 14.4085C26.3695 14.4085 27.0047 14.5422 27.5345 14.8097C28.0694 15.0771 28.4808 15.4423 28.7688 15.9052C29.0569 16.3629 29.2009 16.8824 29.2009 17.4636C29.2009 18.0859 29.0774 18.6542 28.8306 19.1686C28.5837 19.6829 28.2237 20.1921 27.7505 20.6961C27.2825 21.2001 26.7167 21.7582 26.0532 22.3702L24.6028 23.7357V23.8437H29.5172V25.8496Z" fill="white"/>
</svg>
