<svg width="42" height="42" viewBox="0 0 42 42" fill="none" xmlns="http://www.w3.org/2000/svg">
<rect width="42" height="42" rx="21" fill="#111827"/>
<path d="M20.4137 20.2101C20.4137 21.1204 20.3417 21.933 20.1977 22.6479C20.0588 23.3629 19.8325 23.9698 19.5188 24.4687C19.2102 24.9675 18.8038 25.3481 18.2998 25.6104C17.7958 25.8728 17.1837 26.0039 16.4637 26.0039C15.5585 26.0039 14.8153 25.775 14.2341 25.3173C13.6529 24.8544 13.2234 24.1909 12.9457 23.3269C12.668 22.4576 12.5291 21.4187 12.5291 20.2101C12.5291 18.9911 12.6551 17.9496 12.9071 17.0855C13.1643 16.2163 13.5809 15.5503 14.1569 15.0874C14.733 14.6245 15.5019 14.3931 16.4637 14.3931C17.3637 14.3931 18.1044 14.6245 18.6855 15.0874C19.2719 15.5451 19.7065 16.2086 19.9894 17.0778C20.2722 17.9419 20.4137 18.986 20.4137 20.2101ZM14.8976 20.2101C14.8976 21.069 14.9438 21.7865 15.0364 22.3625C15.1341 22.9334 15.2962 23.3629 15.5225 23.6509C15.7488 23.9389 16.0625 24.0829 16.4637 24.0829C16.8597 24.0829 17.1709 23.9415 17.3972 23.6586C17.6286 23.3706 17.7932 22.9411 17.8909 22.3702C17.9886 21.7942 18.0375 21.0741 18.0375 20.2101C18.0375 19.3511 17.9886 18.6337 17.8909 18.0576C17.7932 17.4816 17.6286 17.0495 17.3972 16.7615C17.1709 16.4684 16.8597 16.3218 16.4637 16.3218C16.0625 16.3218 15.7488 16.4684 15.5225 16.7615C15.2962 17.0495 15.1341 17.4816 15.0364 18.0576C14.9438 18.6337 14.8976 19.3511 14.8976 20.2101ZM29.0774 17.0933C29.0774 17.6127 28.9694 18.0628 28.7534 18.4434C28.5374 18.824 28.2442 19.1351 27.8739 19.3769C27.5088 19.6186 27.0973 19.796 26.6396 19.9092V19.9555C27.5448 20.0686 28.2314 20.3464 28.6994 20.7887C29.1726 21.231 29.4092 21.8225 29.4092 22.5631C29.4092 23.2214 29.2472 23.8103 28.9231 24.3298C28.6043 24.8493 28.1105 25.2581 27.4419 25.5564C26.7733 25.8548 25.9118 26.0039 24.8574 26.0039C24.2351 26.0039 23.6539 25.9525 23.1139 25.8496C22.579 25.7519 22.0749 25.6002 21.6018 25.3944V23.3654C22.0852 23.6123 22.5918 23.8 23.1216 23.9286C23.6513 24.0521 24.1451 24.1138 24.6028 24.1138C25.4566 24.1138 26.0532 23.9672 26.3927 23.674C26.7373 23.3757 26.9096 22.9591 26.9096 22.4242C26.9096 22.1105 26.8299 21.8456 26.6704 21.6296C26.511 21.4136 26.2332 21.249 25.8372 21.1358C25.4463 21.0227 24.8986 20.9661 24.1939 20.9661H23.3376V19.1377H24.2094C24.9037 19.1377 25.4309 19.0734 25.7909 18.9448C26.1561 18.8111 26.403 18.6311 26.5315 18.4048C26.6653 18.1733 26.7321 17.911 26.7321 17.6179C26.7321 17.2167 26.6087 16.903 26.3618 16.6767C26.1149 16.4504 25.7035 16.3372 25.1274 16.3372C24.7674 16.3372 24.4382 16.3835 24.1399 16.4761C23.8468 16.5635 23.5819 16.6715 23.3453 16.8001C23.1087 16.9235 22.9004 17.0444 22.7204 17.1627L21.6172 15.5194C22.0595 15.2006 22.5764 14.9357 23.1679 14.7248C23.7645 14.5139 24.4743 14.4085 25.2972 14.4085C26.4595 14.4085 27.3802 14.6425 28.0591 15.1105C28.738 15.5786 29.0774 16.2395 29.0774 17.0933Z" fill="white"/>
</svg>
