<svg width="42" height="42" viewBox="0 0 42 42" fill="none" xmlns="http://www.w3.org/2000/svg">
<rect width="42" height="42" rx="21" fill="#111827"/>
<path d="M20.4137 20.2101C20.4137 21.1204 20.3417 21.933 20.1977 22.6479C20.0588 23.3629 19.8325 23.9698 19.5188 24.4687C19.2102 24.9675 18.8038 25.3481 18.2998 25.6104C17.7958 25.8728 17.1837 26.0039 16.4637 26.0039C15.5585 26.0039 14.8153 25.775 14.2341 25.3173C13.6529 24.8544 13.2234 24.1909 12.9457 23.3269C12.668 22.4576 12.5291 21.4187 12.5291 20.2101C12.5291 18.9911 12.6551 17.9496 12.9071 17.0855C13.1643 16.2163 13.5809 15.5503 14.1569 15.0874C14.733 14.6245 15.5019 14.3931 16.4637 14.3931C17.3637 14.3931 18.1044 14.6245 18.6855 15.0874C19.2719 15.5451 19.7065 16.2086 19.9894 17.0778C20.2722 17.9419 20.4137 18.986 20.4137 20.2101ZM14.8976 20.2101C14.8976 21.069 14.9438 21.7865 15.0364 22.3625C15.1341 22.9334 15.2962 23.3629 15.5225 23.6509C15.7488 23.9389 16.0625 24.0829 16.4637 24.0829C16.8597 24.0829 17.1709 23.9415 17.3972 23.6586C17.6286 23.3706 17.7932 22.9411 17.8909 22.3702C17.9886 21.7942 18.0375 21.0741 18.0375 20.2101C18.0375 19.3511 17.9886 18.6337 17.8909 18.0576C17.7932 17.4816 17.6286 17.0495 17.3972 16.7615C17.1709 16.4684 16.8597 16.3218 16.4637 16.3218C16.0625 16.3218 15.7488 16.4684 15.5225 16.7615C15.2962 17.0495 15.1341 17.4816 15.0364 18.0576C14.9438 18.6337 14.8976 19.3511 14.8976 20.2101ZM27.5268 25.8496H25.1429V19.3229C25.1429 19.1428 25.1454 18.9217 25.1506 18.6594C25.1557 18.3919 25.1634 18.1193 25.1737 17.8416C25.184 17.5587 25.1943 17.3041 25.2046 17.0778C25.148 17.1447 25.0323 17.2604 24.8574 17.425C24.6877 17.5844 24.5283 17.7285 24.3791 17.857L23.083 18.8985L21.9335 17.4636L25.5672 14.5705H27.5268V25.8496Z" fill="white"/>
</svg>
