<svg width="60" height="60" viewBox="0 0 60 60" fill="none" xmlns="http://www.w3.org/2000/svg">
<g clip-path="url(#clip0_243_10739)">
<path d="M59.0164 29.6444C59.0164 13.3475 45.8051 0.13623 29.5082 0.13623C13.2113 0.13623 0 13.3475 0 29.6444C0 45.9414 13.2113 59.1526 29.5082 59.1526C45.8051 59.1526 59.0164 45.9414 59.0164 29.6444Z" fill="#E53946" fill-opacity="0.1"/>
<path fill-rule="evenodd" clip-rule="evenodd" d="M13.5245 22.2676C13.5245 20.9095 14.6255 19.8086 15.9836 19.8086H43.0327C44.3908 19.8086 45.4917 20.9095 45.4917 22.2676V41.9397C45.4917 43.2978 44.3908 44.3988 43.0327 44.3988H15.9836C14.6255 44.3988 13.5245 43.2978 13.5245 41.9397V22.2676ZM43.0327 22.2676H15.9836V41.9397H43.0327V22.2676Z" fill="#E53946"/>
<path fill-rule="evenodd" clip-rule="evenodd" d="M23.2115 15.9709C23.9032 15.2792 24.8413 14.8906 25.8196 14.8906H33.1967C34.175 14.8906 35.1131 15.2792 35.8048 15.9709C36.4966 16.6627 36.8852 17.6009 36.8852 18.5792V21.0382C36.8852 21.7172 36.3348 22.2677 35.6557 22.2677C34.9766 22.2677 34.4262 21.7172 34.4262 21.0382V18.5792C34.4262 18.2531 34.2966 17.9403 34.0661 17.7097C33.8355 17.4792 33.5227 17.3496 33.1967 17.3496H25.8196C25.4936 17.3496 25.1808 17.4792 24.9502 17.7097C24.7197 17.9403 24.5901 18.2531 24.5901 18.5792V21.0382C24.5901 21.7172 24.0397 22.2677 23.3606 22.2677C22.6815 22.2677 22.1311 21.7172 22.1311 21.0382V18.5792C22.1311 17.6009 22.5197 16.6627 23.2115 15.9709Z" fill="#E53946"/>
<path fill-rule="evenodd" clip-rule="evenodd" d="M13.5245 34.5625C13.5245 33.8834 14.075 33.333 14.754 33.333H44.2622C44.9413 33.333 45.4917 33.8834 45.4917 34.5625C45.4917 35.2415 44.9413 35.792 44.2622 35.792H14.754C14.075 35.792 13.5245 35.2415 13.5245 34.5625Z" fill="#E53946"/>
</g>
<defs>
<clipPath id="clip0_243_10739">
<rect width="59.0164" height="60" fill="white"/>
</clipPath>
</defs>
</svg>
