<svg width="60" height="60" viewBox="0 0 60 60" fill="none" xmlns="http://www.w3.org/2000/svg">
<g clip-path="url(#clip0_243_10744)">
<path d="M59.0164 29.6444C59.0164 13.3475 45.8051 0.13623 29.5082 0.13623C13.2113 0.13623 0 13.3475 0 29.6444C0 45.9414 13.2113 59.1526 29.5082 59.1526C45.8051 59.1526 59.0164 45.9414 59.0164 29.6444Z" fill="#E53946" fill-opacity="0.1"/>
<path fill-rule="evenodd" clip-rule="evenodd" d="M28.3011 12.3154C28.6686 12.1049 29.0847 11.9941 29.5083 11.9941C29.9318 11.9941 30.348 12.1049 30.7154 12.3154L44.2393 19.9227C44.6177 20.1375 44.9327 20.4483 45.1526 20.8238C45.3725 21.1992 45.4895 21.626 45.4919 22.0611V22.0676V37.2213H44.2624L45.4919 37.228C45.4895 37.663 45.3725 38.0898 45.1526 38.4653C44.9327 38.8406 44.6177 39.1514 44.2393 39.3663L44.235 39.3688L30.7153 46.9736C30.348 47.184 29.9318 47.2949 29.5083 47.2949C29.0847 47.2949 28.6686 47.184 28.3012 46.9736L14.7815 39.3688L14.7772 39.3663C14.3988 39.1514 14.0838 38.8406 13.8639 38.4653C13.6441 38.0898 13.527 37.663 13.5247 37.228V37.2213V22.0611C13.527 21.626 13.6441 21.1992 13.8639 20.8238C14.0838 20.4483 14.3988 20.1375 14.7772 19.9227L14.7815 19.9202L28.3011 12.3154ZM43.0329 37.2154V22.0736C43.0328 22.0711 43.0321 22.0687 43.0308 22.0666C43.0295 22.0644 43.0276 22.0625 43.0255 22.0613L29.5083 14.4578L15.9914 22.061C15.9893 22.0622 15.987 22.0644 15.9857 22.0666C15.9845 22.0687 15.9838 22.0711 15.9837 22.0736V37.2154C15.9838 37.2178 15.9845 37.2203 15.9857 37.2224C15.987 37.2246 15.9888 37.2264 15.991 37.2278L29.5083 44.8313L43.0251 37.228C43.0272 37.2267 43.0295 37.2246 43.0308 37.2224C43.0321 37.2203 43.0328 37.2178 43.0329 37.2154Z" fill="#E53946"/>
<path fill-rule="evenodd" clip-rule="evenodd" d="M13.8491 20.8391C14.1798 20.246 14.9286 20.0332 15.5218 20.3638L29.6407 28.2339L43.4859 20.3687C44.0763 20.0333 44.8268 20.2401 45.1622 20.8304C45.4977 21.4209 45.2909 22.1714 44.7005 22.5068L30.2538 30.7138C29.8802 30.926 29.4231 30.9278 29.0478 30.7186L14.3245 22.5117C13.7314 22.1811 13.5185 21.4322 13.8491 20.8391Z" fill="#E53946"/>
<path fill-rule="evenodd" clip-rule="evenodd" d="M29.6568 28.4151C30.3358 28.4208 30.8816 28.9759 30.8759 29.6549L30.7376 46.0689C30.7318 46.7478 30.1768 47.2937 29.4978 47.2879C28.8187 47.2822 28.2729 46.7272 28.2786 46.0481L28.417 29.6342C28.4227 28.9552 28.9778 28.4094 29.6568 28.4151Z" fill="#E53946"/>
</g>
<defs>
<clipPath id="clip0_243_10744">
<rect width="59.0164" height="60" fill="white"/>
</clipPath>
</defs>
</svg>
