<svg width="60" height="60" viewBox="0 0 60 60" fill="none" xmlns="http://www.w3.org/2000/svg">
<g clip-path="url(#clip0_243_10733)">
<path d="M59.0164 29.6444C59.0164 13.3475 45.8051 0.13623 29.5082 0.13623C13.2113 0.13623 0 13.3475 0 29.6444C0 45.9414 13.2113 59.1526 29.5082 59.1526C45.8051 59.1526 59.0164 45.9414 59.0164 29.6444Z" fill="#E53946" fill-opacity="0.1"/>
<path fill-rule="evenodd" clip-rule="evenodd" d="M28.1038 12.7923C28.5159 12.5057 29.0059 12.3521 29.5078 12.3521C30.0098 12.3521 30.4997 12.5057 30.9118 12.7923C31.324 13.0789 31.6384 13.4848 31.8131 13.9553L31.816 13.963L35.3798 23.7635C35.3797 23.7633 35.3798 23.7637 35.3798 23.7635C35.3805 23.7653 35.3818 23.7676 35.3833 23.769C35.3844 23.7701 35.3857 23.771 35.387 23.7717C35.3874 23.772 35.3879 23.7722 35.3883 23.7724C35.3882 23.7723 35.3885 23.7724 35.3883 23.7724L45.1969 27.3392C45.6675 27.5139 46.0734 27.8284 46.3601 28.2404C46.6466 28.6526 46.8002 29.1425 46.8002 29.6444C46.8002 30.1465 46.6466 30.6364 46.3601 31.0485C46.0734 31.4606 45.6675 31.7751 45.1969 31.9498L45.1893 31.9527L35.3888 35.5164C35.3887 35.5165 35.389 35.5164 35.3888 35.5164C35.3869 35.5172 35.3848 35.5185 35.3833 35.52C35.3818 35.5214 35.3806 35.5232 35.38 35.525C35.3799 35.5252 35.38 35.5249 35.38 35.525L31.8132 45.3337C31.6385 45.8042 31.324 46.21 30.9118 46.4967C30.4997 46.7833 30.0098 46.9369 29.5078 46.9369C29.0059 46.9369 28.5159 46.7833 28.1038 46.4967C27.6917 46.21 27.3771 45.8042 27.2024 45.3337L27.1996 45.326L23.6359 35.5255C23.6358 35.5253 23.636 35.5257 23.6359 35.5255C23.6354 35.5243 23.6346 35.5228 23.6339 35.5218C23.6334 35.5211 23.6329 35.5205 23.6323 35.52C23.6309 35.5185 23.6291 35.5174 23.6272 35.5166C23.6271 35.5166 23.6274 35.5167 23.6272 35.5166L13.8187 31.9498C13.3481 31.7751 12.9422 31.4606 12.6556 31.0485C12.369 30.6364 12.2153 30.1465 12.2153 29.6444C12.2153 29.1425 12.369 28.6526 12.6556 28.2404C12.9422 27.8283 13.3481 27.5139 13.8187 27.3392L13.8264 27.3363L23.6267 23.7726C23.6266 23.7726 23.6269 23.7725 23.6267 23.7726C23.6287 23.7718 23.6309 23.7704 23.6323 23.769C23.6338 23.7676 23.6349 23.7658 23.6357 23.764C23.6356 23.7641 23.6358 23.7638 23.6357 23.764L27.2024 13.9553C27.3771 13.4848 27.6917 13.0789 28.1038 12.7923ZM34.2262 35.1005L33.0724 34.6754C33.1962 34.3394 33.3914 34.0344 33.6445 33.7812C33.8977 33.528 34.2027 33.3329 34.5387 33.209L34.5436 33.2073L44.3412 29.6444L34.5436 26.0817L34.5387 26.08C34.2028 25.9561 33.8977 25.761 33.6445 25.5078C33.3914 25.2546 33.1962 24.9496 33.0724 24.6136L33.0705 24.6088L29.5078 14.8112L25.9451 24.6088L25.9432 24.6136C25.8195 24.9496 25.6243 25.2546 25.3712 25.5078C25.118 25.761 24.8129 25.9561 24.477 26.08L24.4721 26.0817L14.6744 29.6444L24.477 33.209C24.8129 33.3329 25.118 33.528 25.3712 33.7812C25.6243 34.0344 25.8195 34.3394 25.9432 34.6754L25.9451 34.6802L29.5078 44.4779L33.0705 34.6802L34.2262 35.1005Z" fill="#E53946"/>
</g>
<defs>
<clipPath id="clip0_243_10733">
<rect width="59.0164" height="60" fill="white"/>
</clipPath>
</defs>
</svg>
