<svg width="60" height="60" viewBox="0 0 60 60" fill="none" xmlns="http://www.w3.org/2000/svg">
<g clip-path="url(#clip0_243_10736)">
<path d="M59.0164 29.6444C59.0164 13.3475 45.8051 0.13623 29.5082 0.13623C13.2113 0.13623 0 13.3475 0 29.6444C0 45.9414 13.2113 59.1526 29.5082 59.1526C45.8051 59.1526 59.0164 45.9414 59.0164 29.6444Z" fill="#E53946" fill-opacity="0.1"/>
<path fill-rule="evenodd" clip-rule="evenodd" d="M20.4858 13.6777C20.6248 13.6665 20.7637 13.6611 20.9017 13.6611H41.8034C42.4823 13.6611 43.0329 14.2116 43.0329 14.8906V39.4685C43.0329 40.1475 42.4823 40.698 41.8034 40.698H20.9017C20.5845 40.698 20.2534 40.7642 19.9606 40.8862L19.9497 40.8907C19.6488 41.0128 19.3813 41.1908 19.1523 41.4199C18.9301 41.642 18.7461 41.9223 18.6186 42.2282C18.5044 42.5024 18.4427 42.8307 18.4427 43.1693H39.3443C40.0233 43.1693 40.5739 43.7198 40.5739 44.3988C40.5739 45.0778 40.0233 45.6283 39.3443 45.6283H17.2132C16.5341 45.6283 15.9837 45.0778 15.9837 44.3988V18.5813C15.9787 18.35 15.9922 18.1199 16.0218 17.8944C16.0271 17.8536 16.033 17.8128 16.0395 17.7722C16.0489 17.7125 16.0594 17.6532 16.0711 17.5941C16.0776 17.5609 16.0845 17.528 16.0918 17.495C16.1011 17.4525 16.1111 17.4101 16.1215 17.3681C16.1309 17.33 16.1409 17.292 16.1513 17.2542C16.1608 17.2192 16.1709 17.1843 16.1813 17.1496C16.1946 17.105 16.2085 17.0607 16.2231 17.0166C16.2377 16.9727 16.2528 16.9291 16.2686 16.8856C16.2811 16.8511 16.2941 16.8166 16.3074 16.7825C16.3208 16.7482 16.3345 16.714 16.3487 16.68C16.3643 16.6428 16.3802 16.606 16.3965 16.5692C16.4114 16.5358 16.4266 16.5028 16.4422 16.4698C16.4582 16.4358 16.4747 16.4021 16.4915 16.3685C16.5331 16.2853 16.5772 16.2034 16.6235 16.1226C16.6416 16.091 16.6602 16.0597 16.679 16.0284C16.6938 16.0041 16.7087 15.9798 16.7239 15.9557C16.7397 15.9305 16.7557 15.9054 16.7721 15.8805C16.7929 15.8485 16.8143 15.8167 16.8359 15.7851C16.8597 15.7506 16.8839 15.7164 16.9085 15.6824C16.9673 15.6014 17.0286 15.522 17.0924 15.4445C17.1425 15.3837 17.194 15.3241 17.247 15.2656C17.2782 15.2313 17.3099 15.1972 17.3422 15.1637C17.3657 15.1392 17.3895 15.1149 17.4135 15.0909C17.4681 15.0362 17.5239 14.9832 17.5808 14.9317C17.6342 14.8833 17.6886 14.8361 17.7439 14.7905C17.803 14.7416 17.8631 14.6943 17.9241 14.6485C18.0022 14.5899 18.0817 14.5338 18.1626 14.4803C18.2399 14.429 18.3185 14.3801 18.3981 14.3335C18.4811 14.2848 18.5653 14.2388 18.6504 14.1951C18.7139 14.1626 18.7781 14.1314 18.8427 14.1016C18.8998 14.0753 18.9571 14.0502 19.0149 14.0261C19.0662 14.0048 19.1179 13.9844 19.1696 13.9651C19.2152 13.9481 19.2611 13.9318 19.307 13.9164C19.3761 13.8931 19.4454 13.8715 19.5148 13.8517C19.5667 13.8369 19.6186 13.823 19.6706 13.8101C19.7272 13.796 19.7839 13.7829 19.8405 13.7709C19.8824 13.7621 19.9243 13.7538 19.9663 13.746C20.0093 13.7381 20.0523 13.7308 20.0953 13.724C20.2255 13.7034 20.3558 13.6881 20.4858 13.6777ZM18.4427 38.8947C18.6277 38.7891 18.8205 38.6954 19.0203 38.6141C19.6113 38.3686 20.2618 38.239 20.9017 38.239H40.5739V16.1202H20.9017C20.8284 16.1202 20.7549 16.123 20.6816 16.1289C20.6132 16.1343 20.5454 16.1424 20.4786 16.1529C20.4565 16.1563 20.4346 16.1602 20.4129 16.1641C20.3916 16.1681 20.3705 16.1723 20.3495 16.1767C20.3212 16.1827 20.2932 16.1891 20.2655 16.1961C20.2401 16.2024 20.215 16.2091 20.1901 16.2161C20.1568 16.2257 20.1242 16.2358 20.0922 16.2466C20.071 16.2537 20.05 16.2612 20.0295 16.2689C20.0061 16.2776 19.9831 16.2867 19.9606 16.296C19.9307 16.3085 19.9009 16.3216 19.8713 16.3352C19.8377 16.3507 19.8043 16.3668 19.7714 16.3838C19.7272 16.4064 19.6836 16.4303 19.6409 16.4553C19.5999 16.4794 19.5597 16.5043 19.5203 16.5304C19.4792 16.5577 19.4391 16.586 19.4001 16.6152C19.3697 16.6381 19.34 16.6615 19.3109 16.6855C19.2839 16.7079 19.2574 16.7308 19.2318 16.754C19.2044 16.7788 19.178 16.8041 19.1523 16.8297C19.1402 16.8417 19.1282 16.8539 19.1164 16.8663C19.1002 16.8831 19.0842 16.9002 19.0686 16.9175C19.0419 16.9469 19.0161 16.9769 18.991 17.0074C18.959 17.0462 18.9282 17.0861 18.8987 17.1267C18.8864 17.1437 18.8742 17.1608 18.8623 17.1781C18.8515 17.194 18.8408 17.2099 18.8303 17.2259C18.8222 17.2384 18.8141 17.2509 18.8063 17.2635C18.7986 17.2756 18.7911 17.2878 18.7838 17.3C18.7744 17.3155 18.765 17.3313 18.756 17.3471C18.7328 17.3875 18.7107 17.4285 18.6899 17.4701C18.6815 17.4869 18.6733 17.5038 18.6653 17.5207C18.6575 17.5372 18.6499 17.5538 18.6425 17.5704C18.6343 17.5888 18.6263 17.6073 18.6186 17.6258C18.6118 17.6421 18.6051 17.6586 18.5987 17.6752C18.5922 17.6918 18.5859 17.7085 18.5798 17.7253C18.5722 17.7463 18.5648 17.7677 18.5577 17.7891C18.5505 17.8107 18.5437 17.8323 18.5372 17.8541C18.5321 17.8712 18.5272 17.8882 18.5225 17.9053C18.5175 17.9238 18.5126 17.9424 18.508 17.9609C18.5029 17.9815 18.4981 18.0021 18.4935 18.0228C18.49 18.0388 18.4867 18.0548 18.4835 18.0708C18.4778 18.0994 18.4727 18.128 18.4682 18.1565C18.4651 18.176 18.4624 18.1954 18.4598 18.2147C18.4454 18.3246 18.4397 18.4322 18.4423 18.5353C18.4425 18.5458 18.4427 18.5563 18.4427 18.5669V38.8947Z" fill="#E53946"/>
</g>
<defs>
<clipPath id="clip0_243_10736">
<rect width="59.0164" height="60" fill="white"/>
</clipPath>
</defs>
</svg>
